<?xml version="1.0" encoding="utf-8"?>
<!-- Generator: Adobe Illustrator 16.0.0, SVG Export Plug-In . SVG Version: 6.00 Build 0)  -->
<!DOCTYPE svg PUBLIC "-//W3C//DTD SVG 1.1//EN" "http://www.w3.org/Graphics/SVG/1.1/DTD/svg11.dtd">
<svg version="1.1" id="Capa_1" xmlns="http://www.w3.org/2000/svg" xmlns:xlink="http://www.w3.org/1999/xlink" x="0px" y="0px"
	 width="200px" height="200px" viewBox="0 0 200 200" enable-background="new 0 0 200 200" xml:space="preserve">
<g>
	<path fill="#004946" d="M165.492,121.69c-3.287-2.391-7.928-4.64-12.9-6.644c0.756,5.034,0.686,11.312-1.344,18.735
		c8.6,3.863,8.824,10.902,8.137,16.067c-0.832,6.284-5.094,22.181-6.506,26.455c-0.887,2.681-2.777,4.72-5.463,5.897
		c-1.582,0.691-3.387,1.039-5.244,1.039c-1.734,0-3.516-0.306-5.195-0.915c-2.012-0.73-2.988-2.803-2.184-4.63
		c0.803-1.824,3.082-2.715,5.098-1.983c1.422,0.518,3.039,0.546,4.117,0.073c0.68-0.298,1.109-0.782,1.357-1.529
		c1.504-4.553,5.504-19.739,6.234-25.258c0.76-5.725-0.551-7.95-5.609-9.518c-5.898-1.828-9.703-0.026-11.299,2.271
		c-2.303,3.307-10.836,17.95-13.867,23.972c-1.465,2.904,2.041,4.609,2.758,4.922c1.953,0.851,2.777,2.979,1.84,4.751
		s-3.279,2.521-5.232,1.67c-4.516-1.968-9.979-7.401-6.5-14.306c3.195-6.345,11.91-21.276,14.369-24.812
		c2.545-3.661,7.99-7.034,15.668-6.207c2.311-8.672,1.553-15.336,0.209-19.857c-10.094-3.377-19.229-5.507-19.229-5.507
		s-7.059,24.214-17.256,36.678l-3.529-20.654l2.746-4.272L100,113.855l-6.667,4.273l2.745,4.272l-3.53,20.654
		c-10.195-12.464-17.255-36.678-17.255-36.678s-7.576,1.768-16.553,4.635c-1.979,6.235-2.352,18.223,9.071,38.465
		c0.375-0.033,0.755-0.054,1.141-0.054c6.402,0,11.591,4.713,11.591,10.523c0,5.813-5.189,10.527-11.591,10.527
		c-6.401,0-11.591-4.714-11.591-10.527c0-2.891,1.287-5.51,3.367-7.413c-9.983-17.765-11.702-30.229-10.621-38.532
		c-5.969,2.251-11.721,4.87-15.598,7.688c-11.766,8.546-15.256,68.563-15.256,68.563h161.496
		C180.748,190.254,177.258,130.236,165.492,121.69z"/>
	<path fill="#004946" d="M136.873,55.736c4.855-19.727-1.123-27.008-5.432-29.646c0,0-6.857-14.747-26.031-16.171
		c-19.174-1.424-29.006,6.173-33.185,14.719c0,0-16.224,2.137-9.096,31.098c0,0-6.883,1.424-3.933,8.784
		c2.95,7.358,9.342,9.259,9.342,9.259s10.815,29.435,31.463,29.435c20.647,0,31.463-29.435,31.463-29.435s6.391-1.901,9.34-9.259
		C143.756,57.16,136.873,55.736,136.873,55.736z M128.516,56.479c-1.23,13.971-13.906,39.61-28.514,39.61c-0.001,0-0.001,0-0.001,0
		c-14.607,0-27.285-25.639-28.514-39.61c-0.973-11.052,5.119-17.547,7.711-19.785c5.376,4.185,14.736,9.57,27.326,9.57
		c2.844,0,5.852-0.275,9.016-0.901c0.998-0.198,1.641-1.138,1.436-2.102c-0.203-0.964-1.178-1.581-2.174-1.387
		c-7.775,1.54-14.567,0.699-20.179-1.104c1.624,0.152,3.407,0.243,5.379,0.243c15.239,0,19.665-5.223,19.665-5.223
		S129.744,42.509,128.516,56.479z"/>
</g>
</svg>
